<?xml version="1.0" standalone="no"?>
<!DOCTYPE svg PUBLIC "-//W3C//DTD SVG 20010904//EN"
 "http://www.w3.org/TR/2001/REC-SVG-20010904/DTD/svg10.dtd">
<svg version="1.0" xmlns="http://www.w3.org/2000/svg"
 width="500.000000pt" height="500.000000pt" viewBox="0 0 500.000000 500.000000"
 preserveAspectRatio="xMidYMid meet">
<metadata>
Created by potrace 1.14, written by Peter Selinger 2001-2017
</metadata>
<g transform="translate(0.000000,500.000000) scale(0.100000,-0.100000)"
fill="#000000" stroke="none">
<path d="M2375 4767 c-97 -25 -231 -109 -313 -196 -41 -43 -112 -169 -112
-198 0 -7 -3 -12 -7 -12 -26 4 -44 -4 -54 -23 -15 -28 -19 -77 -8 -84 14 -8
10 -26 -3 -18 -7 4 -4 -2 6 -14 11 -12 16 -22 11 -22 -4 0 -2 -7 5 -15 7 -8
11 -15 9 -16 -32 -7 -52 -3 -60 13 -7 13 -6 18 3 18 8 0 9 3 3 8 -5 4 -11 14
-13 22 -6 24 -24 41 -39 36 -7 -3 -13 -1 -13 5 0 16 -46 28 -76 20 -18 -5 -38
-2 -56 7 -40 19 -78 22 -115 7 -25 -11 -36 -11 -55 -1 -38 20 -88 11 -120 -21
-28 -28 -28 -30 -42 -173 -2 -14 -7 -24 -11 -23 -13 2 -23 35 -17 52 3 8 1 12
-4 8 -6 -3 -16 -2 -24 4 -11 6 -11 9 -2 9 8 0 5 8 -8 23 -12 12 -23 21 -25 20
-3 -1 -21 5 -41 13 -69 29 -139 -8 -150 -78 -4 -22 -12 -38 -20 -38 -32 0
-131 -46 -200 -92 -129 -86 -199 -172 -238 -295 -25 -76 -23 -254 3 -301 6
-11 4 -26 -5 -45 -18 -34 -15 -103 4 -99 8 1 11 -2 7 -8 -3 -6 -11 -8 -16 -5
-5 4 -9 2 -9 -3 0 -16 13 -22 27 -11 8 8 13 8 13 1 0 -6 -5 -12 -12 -14 -6 -2
-8 -10 -4 -17 6 -9 11 -9 24 1 9 7 13 8 9 2 -7 -12 27 -28 53 -24 11 1 9 -3
-5 -13 -18 -14 -18 -15 8 -12 15 2 25 -1 21 -6 -3 -5 2 -9 10 -9 9 0 16 -4 16
-10 0 -10 -27 -3 -47 13 -7 5 -13 6 -13 2 0 -4 -7 -2 -15 5 -8 7 -12 16 -9 21
5 8 -20 13 -30 7 -2 -2 -12 4 -22 13 -63 52 -146 40 -190 -26 -25 -38 -21
-194 4 -203 7 -2 10 -8 6 -13 -3 -5 0 -9 7 -9 8 0 7 -5 -2 -17 -10 -11 -10
-14 -2 -9 12 6 18 -5 14 -27 0 -4 2 -6 6 -6 19 3 34 -2 29 -10 -3 -4 2 -17 10
-27 9 -10 13 -14 10 -8 -3 7 2 18 12 25 15 12 16 12 5 -2 -17 -21 -5 -33 16
-16 14 11 14 10 2 -5 -11 -14 -11 -18 -1 -18 8 0 11 -2 8 -5 -3 -3 -33 4 -68
15 -93 30 -106 31 -135 9 -28 -23 -35 -75 -12 -98 9 -11 9 -13 0 -7 -7 4 -13
2 -13 -3 0 -6 8 -11 18 -11 14 0 15 -2 2 -10 -13 -8 -12 -10 3 -10 10 0 15 -4
12 -10 -3 -5 1 -10 9 -10 9 0 16 -5 16 -12 0 -6 7 -3 15 8 13 16 14 16 9 2 -4
-12 -1 -18 10 -18 9 0 16 -5 16 -11 0 -5 4 -8 10 -4 5 3 25 -1 45 -9 20 -9 33
-11 30 -6 -9 15 4 12 20 -4 8 -7 11 -17 7 -21 -4 -5 0 -4 8 1 38 22 44 10 29
-62 -4 -22 -11 -69 -14 -105 -4 -35 -9 -72 -11 -82 -7 -23 -6 -319 1 -372 3
-22 8 -60 10 -85 6 -54 10 -69 20 -92 4 -10 5 -25 1 -33 -3 -8 -1 -15 5 -15 6
0 8 -9 4 -20 -3 -11 -3 -20 2 -20 8 0 12 -15 15 -57 1 -7 5 -13 10 -13 5 0 6
-5 3 -10 -4 -6 -1 -17 5 -25 6 -8 9 -19 5 -25 -3 -5 -1 -10 5 -10 6 0 9 -4 5
-9 -3 -5 -1 -12 4 -16 6 -3 8 -12 4 -20 -3 -8 0 -15 7 -15 6 0 8 -4 5 -10 -3
-5 -1 -10 6 -10 8 0 8 -4 -1 -15 -10 -12 -8 -16 11 -24 13 -5 17 -10 9 -11
-12 0 -12 -2 -2 -9 8 -4 13 -11 13 -15 -3 -20 0 -26 11 -20 7 5 8 3 4 -5 -10
-16 13 -73 27 -64 5 3 7 2 4 -3 -8 -13 29 -94 43 -94 6 0 8 -4 5 -10 -3 -6 -3
-15 1 -21 4 -8 9 -7 15 2 6 10 9 10 9 2 0 -6 -5 -15 -11 -18 -7 -5 -4 -13 7
-26 9 -10 21 -16 26 -13 6 4 7 -2 3 -15 -4 -14 -1 -23 9 -27 9 -3 16 -11 16
-16 0 -6 8 -17 18 -25 10 -8 11 -11 2 -7 -13 7 -13 5 -1 -9 7 -9 17 -15 21
-12 4 3 7 -3 6 -13 0 -10 6 -17 16 -17 9 0 20 -4 25 -9 4 -5 3 -6 -4 -2 -6 3
-14 2 -18 -4 -3 -5 -1 -10 5 -10 6 0 8 -5 4 -12 -5 -9 -2 -8 9 1 15 12 17 12
11 -3 -4 -11 -1 -16 12 -16 16 0 17 -2 4 -10 -13 -8 -12 -10 3 -10 10 0 15 -5
12 -10 -3 -6 -1 -10 5 -10 6 0 8 -5 4 -12 -4 -7 -3 -8 4 -4 6 4 16 -4 23 -16
21 -40 106 -125 123 -122 14 2 15 0 5 -12 -11 -13 -2 -19 24 -15 7 1 11 -15 8
-31 0 -5 2 -7 7 -7 20 3 32 -2 26 -12 -5 -8 1 -10 20 -7 19 4 24 2 17 -5 -6
-6 -5 -15 6 -25 13 -13 18 -13 37 -2 l21 13 -20 -23 c-11 -13 -14 -20 -7 -16
6 4 12 2 12 -4 0 -6 5 -8 10 -5 6 3 10 -1 10 -9 0 -9 11 -18 25 -22 14 -3 22
-11 18 -17 -3 -6 -1 -7 5 -3 7 4 12 2 12 -4 0 -6 5 -8 10 -5 6 3 10 -1 10 -11
0 -13 3 -14 14 -5 11 9 16 9 22 0 5 -8 3 -10 -7 -5 -8 4 -5 0 6 -8 11 -9 26
-14 34 -11 12 5 12 3 0 -12 -12 -15 -12 -16 4 -10 9 3 17 2 17 -3 0 -5 7 -7
15 -3 10 3 15 0 13 -8 -2 -8 5 -14 14 -14 9 0 20 -4 25 -9 5 -5 2 -6 -6 -1 -9
5 -12 4 -7 -3 4 -6 13 -9 20 -6 7 3 16 -2 20 -12 5 -14 9 -14 23 -3 15 12 16
12 11 -3 -9 -22 2 -30 21 -16 9 7 13 9 9 4 -11 -13 55 -55 68 -44 8 5 14 2 18
-8 4 -12 10 -13 19 -6 14 12 47 -7 47 -26 0 -6 6 -9 14 -6 8 3 17 0 21 -6 5
-8 11 -5 21 7 11 15 13 15 8 2 -3 -10 -1 -20 5 -24 10 -5 15 6 13 26 -1 3 6 6
13 6 11 0 12 -4 3 -14 -8 -10 -8 -17 0 -25 7 -7 12 -8 12 -4 0 5 7 3 15 -4 12
-10 15 -10 16 1 0 8 4 5 9 -6 6 -15 9 -16 9 -4 1 9 11 24 24 35 l22 19 -19
-23 c-19 -22 -19 -23 -1 -40 10 -9 15 -11 11 -4 -4 6 -2 12 4 12 6 0 13 -6 16
-13 3 -8 15 -13 27 -12 12 1 27 0 32 -4 6 -3 16 -6 23 -7 8 -2 21 -6 30 -10
31 -13 77 -10 96 6 11 8 16 10 13 4 -11 -20 20 -35 76 -39 30 -1 61 -6 68 -10
8 -6 11 -4 7 7 -4 8 -2 21 3 29 8 12 10 12 8 -1 -4 -37 1 -44 16 -24 11 13 14
14 13 4 -2 -10 4 -14 20 -12 13 2 22 -2 22 -10 0 -9 3 -9 8 -2 9 14 43 14 61
0 12 -9 13 -8 6 3 -6 11 -4 13 7 8 9 -3 21 0 28 6 9 9 11 9 7 1 -4 -7 0 -15 9
-18 8 -3 12 -2 9 4 -7 11 36 10 52 -2 7 -6 19 -1 34 14 12 13 19 18 16 12 -4
-7 0 -15 9 -18 8 -3 12 -2 9 4 -3 6 -1 10 4 10 6 0 11 -6 11 -12 0 -10 2 -10
8 -1 4 7 18 11 30 8 12 -2 22 0 22 6 0 5 6 8 13 6 6 -1 11 3 10 8 -1 6 8 12
20 12 20 2 20 1 5 -8 -10 -6 -18 -15 -18 -21 0 -7 4 -7 13 1 8 6 17 8 20 4 4
-3 7 1 7 11 0 16 2 16 15 2 13 -12 20 -13 35 -4 10 7 16 17 14 23 -3 5 1 2 9
-8 13 -16 15 -16 21 -2 5 13 10 14 28 4 20 -11 22 -10 10 3 -11 13 -10 16 5
14 11 0 17 5 15 14 -2 8 0 12 4 7 4 -4 17 1 28 10 18 15 18 14 -1 -8 -26 -28
-31 -48 -8 -29 8 6 19 9 25 5 5 -3 10 1 10 9 0 9 5 16 11 16 5 0 7 -5 3 -12
-5 -7 -3 -8 7 -2 8 4 23 10 34 11 11 2 22 8 23 13 2 6 8 10 13 10 6 0 7 -5 3
-11 -3 -6 5 -4 18 5 14 9 28 13 33 9 4 -5 5 1 1 11 -6 16 -4 17 10 6 13 -12
17 -11 25 1 7 12 9 12 9 -1 1 -12 3 -11 11 3 5 9 18 17 28 17 9 0 41 11 69 25
29 14 57 25 63 25 5 0 8 4 5 9 -3 5 1 12 10 15 9 3 12 2 8 -5 -3 -6 8 -3 26 6
26 14 30 19 19 27 -11 8 -10 9 4 4 20 -6 77 19 77 34 0 5 6 7 14 4 7 -3 16 2
20 11 3 9 10 13 16 10 5 -3 10 -1 10 4 0 6 6 11 13 11 8 0 22 9 32 20 9 10 21
18 25 17 4 -1 24 13 44 31 20 18 36 29 36 26 0 -4 11 5 25 20 13 14 29 26 35
26 5 0 10 5 10 11 0 5 5 7 10 4 6 -4 9 -3 8 2 -4 10 38 53 51 53 5 0 13 9 16
21 4 11 9 18 13 15 7 -7 38 36 34 47 -1 5 3 7 10 5 7 -3 22 8 34 23 11 16 23
27 25 25 2 -2 11 3 19 12 13 14 12 15 -4 9 -11 -5 -5 6 15 25 58 55 63 65 48
85 -11 15 -11 16 0 6 15 -13 44 -6 35 8 -3 5 0 9 5 9 6 0 11 9 11 21 0 15 5
19 16 15 8 -3 12 -2 9 4 -3 6 0 10 7 10 10 0 10 2 -1 9 -11 7 -9 10 8 16 11 3
21 13 21 21 0 8 4 14 10 14 5 0 9 3 9 7 -4 22 2 33 14 27 6 -4 9 -4 5 0 -4 5
3 25 16 45 26 41 40 73 38 84 -1 4 2 7 6 7 9 0 34 46 37 65 1 6 -3 19 -8 30
-9 18 -9 19 7 6 15 -13 17 -12 14 10 -2 13 -7 29 -11 35 -4 7 2 11 16 10 15
-1 22 4 21 17 -1 9 2 17 8 17 5 0 7 4 4 9 -4 5 -2 11 3 13 10 3 22 45 24 81 1
9 6 17 11 17 5 0 6 3 3 7 -4 3 -1 13 6 21 9 13 9 14 0 8 -7 -4 -13 -2 -13 3 0
6 5 11 11 11 6 0 9 9 6 20 -3 11 0 23 5 27 7 4 8 1 3 -8 -6 -11 -5 -12 5 -2
12 11 11 15 -6 28 -13 10 -14 13 -3 10 15 -6 19 2 20 48 0 11 5 15 12 10 8 -4
8 -1 -1 9 -9 12 -10 18 -2 23 8 5 7 11 -2 23 -10 12 -10 14 0 8 12 -7 16 4 13
31 -1 7 3 22 9 33 7 13 7 20 0 20 -5 0 -10 -5 -10 -12 0 -6 -3 -8 -7 -5 -3 4
1 15 11 26 18 19 18 41 1 53 -6 5 -6 8 1 8 7 0 12 30 12 84 1 46 2 88 3 92 4
23 -2 35 -13 28 -10 -6 -10 -4 0 8 13 17 13 78 0 78 -4 0 -8 5 -8 11 0 5 5 7
10 4 6 -3 10 -1 10 4 0 6 -4 11 -10 11 -5 0 -10 5 -10 11 0 5 5 7 10 4 6 -3
10 -2 10 4 0 5 -6 11 -12 14 -10 3 -10 7 0 19 10 12 10 17 -1 26 -7 7 -13 27
-12 47 1 19 -2 35 -8 35 -5 0 -5 6 2 14 8 10 8 16 -2 25 -8 6 -18 7 -23 3 -4
-4 -2 1 5 10 11 14 10 22 -2 47 -10 21 -12 32 -4 40 8 8 5 11 -9 11 -16 0 -17
2 -4 10 12 8 12 10 1 10 -8 0 -11 7 -8 20 3 11 1 20 -4 20 -4 0 -5 7 -2 17 4
10 2 14 -5 9 -6 -3 -14 -1 -18 6 -4 7 -4 10 1 6 4 -4 15 -2 23 5 13 9 14 9 8
0 -4 -7 -2 -13 3 -13 6 0 11 5 11 11 0 5 4 8 9 4 6 -3 16 1 23 8 7 8 20 12 30
9 10 -2 18 0 18 6 0 6 9 9 20 7 24 -5 25 3 5 25 -13 15 -13 17 0 17 8 0 13 -3
10 -5 -3 -3 0 -11 6 -18 8 -10 15 -10 36 1 32 17 43 33 43 63 0 12 5 22 11 22
5 0 7 5 4 10 -4 6 -10 8 -15 5 -4 -3 -6 4 -3 15 5 18 -5 25 -30 21 -4 0 -6 4
-5 10 2 6 -15 17 -36 25 -36 13 -45 12 -133 -16 -93 -30 -119 -31 -109 -4 3 7
-3 18 -12 23 -15 9 -15 10 4 11 12 0 25 7 28 16 4 10 2 13 -6 8 -7 -4 -8 -3
-4 4 4 7 14 12 22 12 8 0 14 7 14 16 0 8 4 13 9 9 6 -3 8 3 6 14 -3 15 0 18
12 14 11 -4 14 -2 9 5 -5 8 -1 10 10 5 14 -5 16 -3 11 13 -6 17 -6 17 6 3 10
-14 14 -14 25 -3 7 8 10 14 6 14 -3 0 -1 7 6 15 10 12 16 13 28 3 10 -8 13 -9
9 -2 -4 7 0 14 8 18 22 8 18 25 -5 21 -12 -2 -18 0 -15 6 4 5 10 7 15 4 11 -7
20 8 26 40 5 27 -13 34 -33 14 -8 -8 -13 -7 -18 2 -5 7 -4 10 1 6 11 -6 38 13
42 31 2 10 -15 16 -39 14 -3 -1 -6 6 -6 13 0 12 3 12 16 2 9 -7 7 -1 -4 15
-16 21 -23 24 -34 15 -11 -9 -13 -9 -8 -1 4 7 -10 20 -38 33 -31 15 -43 25
-39 36 4 8 1 22 -6 30 -8 10 -9 15 -2 15 6 0 9 9 7 20 -3 14 2 20 13 20 14 0
15 2 3 9 -11 7 -12 13 -3 23 6 8 10 24 7 36 -2 12 1 22 6 22 6 0 7 5 4 11 -4
6 -13 8 -21 5 -7 -3 -16 -1 -19 5 -4 5 -3 9 2 8 4 -1 16 -1 27 0 16 1 17 3 5
18 -12 14 -12 15 0 9 10 -7 12 -3 6 13 -4 13 -1 28 6 37 7 8 8 14 3 13 -5 -1
-16 -1 -24 1 -13 1 -12 3 1 8 13 5 14 13 8 31 -6 16 -13 21 -22 15 -7 -5 -5
-2 5 7 17 16 17 17 0 25 -9 4 -21 6 -25 5 -5 -1 -6 3 -2 9 5 8 12 7 23 -2 14
-11 15 -10 9 5 -4 10 -7 21 -7 23 0 3 -3 3 -7 1 -5 -3 -9 9 -10 26 -1 17 -8
34 -14 38 -6 4 -9 12 -5 17 4 7 -2 9 -15 7 -16 -3 -18 -1 -10 9 7 9 7 16 -1
24 -7 7 -9 12 -5 12 4 0 2 6 -5 14 -7 8 -16 12 -20 9 -5 -2 -8 1 -8 7 0 6 -19
31 -42 55 -29 30 -45 40 -50 32 -5 -8 -8 -6 -8 7 0 11 -3 16 -7 13 -3 -4 -12
1 -19 11 -7 9 -16 17 -21 17 -18 2 -53 17 -53 24 0 4 -6 8 -12 8 -7 0 -40 8
-73 18 -33 10 -63 18 -67 17 -5 -1 -8 2 -8 6 0 14 -79 34 -103 26 -12 -4 -33
-15 -46 -25 -33 -26 -64 -24 -78 6 -6 14 -7 23 -2 19 5 -3 6 2 3 11 -4 9 -13
14 -20 11 -8 -3 -13 -2 -13 2 3 21 -3 32 -17 32 -9 0 -12 5 -8 12 4 7 3 8 -5
4 -6 -4 -17 -3 -24 2 -21 17 -72 20 -106 6 -42 -18 -61 -65 -61 -151 0 -37 -5
-75 -10 -83 -8 -12 -10 -10 -11 10 -1 14 -1 29 0 34 1 4 -4 14 -10 22 -7 9 -8
14 -1 14 6 0 9 8 7 18 -1 9 -8 16 -13 15 -6 -2 -9 4 -6 12 4 8 1 15 -7 15 -7
0 -9 3 -5 7 3 4 -6 13 -21 20 -16 7 -19 11 -9 8 16 -5 17 -3 6 10 -7 8 -10 22
-6 30 4 10 2 14 -5 9 -7 -4 -9 0 -5 14 4 11 2 23 -4 27 -6 3 -8 11 -5 16 4 5
1 9 -5 9 -6 0 -9 4 -6 9 8 12 -31 54 -43 47 -5 -3 -7 2 -5 11 3 13 -9 24 -44
40 -26 11 -58 24 -70 28 -35 10 -106 -3 -128 -24 -35 -34 -52 -59 -46 -67 4
-4 2 -4 -5 0 -7 4 -9 14 -6 22 3 9 1 19 -6 23 -7 4 -13 18 -14 31 -1 13 -9 25
-19 28 -10 2 -15 8 -13 13 3 4 -5 18 -17 30 -13 12 -16 19 -8 15 9 -5 9 -2 -2
7 -10 8 -15 16 -12 20 3 3 -7 13 -21 24 -15 10 -34 26 -43 36 -9 9 -22 17 -30
17 -7 0 -10 5 -7 10 3 6 -3 10 -15 10 -12 0 -18 5 -15 10 3 6 -3 10 -14 10
-12 0 -21 4 -21 8 0 5 -6 9 -12 10 -7 0 -40 11 -73 23 -74 27 -235 35 -310 16z
m544 -161 c9 -11 9 -16 -1 -22 -7 -4 -10 -4 -6 1 4 4 3 14 -3 22 -6 7 -9 13
-6 13 2 0 10 -6 16 -14z m78 -120 c0 -15 -21 -16 -34 -1 -4 4 -3 5 4 1 6 -3
14 -2 18 4 8 14 12 13 12 -4z m18 -54 c-3 -3 -11 0 -18 7 -9 10 -8 11 6 5 10
-3 15 -9 12 -12z m346 -79 c13 -16 12 -17 -3 -4 -17 13 -22 21 -14 21 2 0 10
-8 17 -17z m-336 -13 c3 -5 1 -10 -4 -10 -6 0 -11 5 -11 10 0 6 2 10 4 10 3 0
8 -4 11 -10z m350 -20 c3 -6 -1 -7 -9 -4 -18 7 -21 14 -7 14 6 0 13 -4 16 -10z
m-1548 -87 c0 -9 -4 -10 -14 -2 -7 6 -13 12 -13 14 0 1 6 2 13 2 8 0 14 -6 14
-14z m3 -29 c0 -8 -19 -13 -24 -6 -3 5 1 9 9 9 8 0 15 -2 15 -3z m1614 -46
c-3 -4 -11 -5 -19 -1 -21 7 -19 12 4 10 11 0 18 -5 15 -9z m12 -80 c3 -4 -1
-5 -10 -4 -8 1 -18 5 -22 8 -3 4 1 5 10 4 8 -1 18 -5 22 -8z m938 -556 c3 -5
-1 -9 -9 -9 -8 0 -12 4 -9 9 3 4 7 8 9 8 2 0 6 -4 9 -8z m-3730 -308 c3 -8 2
-12 -4 -9 -6 3 -10 10 -10 16 0 14 7 11 14 -7z m3863 -24 c-1 -12 -10 -29 -22
-38 l-20 -17 20 24 c11 13 19 25 18 27 -5 7 -3 24 1 24 3 0 4 -9 3 -20z m-77
-53 c0 -2 -8 -11 -18 -20 -15 -14 -19 -15 -19 -2 0 8 4 12 8 9 4 -2 10 0 14 6
6 10 15 14 15 7z m-3986 -215 c3 -5 -1 -9 -9 -9 -8 0 -12 4 -9 9 3 4 7 8 9 8
2 0 6 -4 9 -8z m4211 -1 c-9 -8 -36 -10 -30 -2 2 4 11 8 20 8 8 0 13 -3 10 -6z
m-4099 -103 c3 -4 -1 -5 -10 -4 -8 1 -18 5 -22 8 -3 4 1 5 10 4 8 -1 18 -5 22
-8z m3988 -17 c-8 -8 -34 -10 -38 -2 -3 4 6 7 19 7 14 0 22 -2 19 -5z m-113
-18 c13 -16 12 -17 -3 -4 -10 7 -18 15 -18 17 0 8 8 3 21 -13z m-4086 -71 c-3
-3 -11 0 -18 7 -9 10 -8 11 6 5 10 -3 15 -9 12 -12z m4076 1 c13 -16 12 -17
-3 -4 -17 13 -22 21 -14 21 2 0 10 -8 17 -17z m-3997 -39 c3 -8 2 -12 -4 -9
-6 3 -10 10 -10 16 0 14 7 11 14 -7z m70 8 c3 -5 -1 -9 -9 -9 -8 0 -12 4 -9 9
3 4 7 8 9 8 2 0 6 -4 9 -8z m3967 -89 c13 -16 12 -17 -3 -4 -17 13 -22 21 -14
21 2 0 10 -8 17 -17z m39 -67 c0 -2 -7 -7 -16 -10 -8 -3 -12 -2 -9 4 6 10 25
14 25 6z m-11 -39 c8 -10 7 -14 -2 -14 -8 0 -14 6 -14 14 0 7 1 13 2 13 2 0 8
-6 14 -13z m31 -82 c0 -2 -6 -5 -13 -8 -8 -3 -14 1 -14 8 0 7 6 11 14 8 7 -3
13 -6 13 -8z m-10 -121 c0 -8 -19 -13 -24 -6 -3 5 1 9 9 9 8 0 15 -2 15 -3z
m-19 -41 c13 -16 12 -17 -3 -4 -17 13 -22 21 -14 21 2 0 10 -8 17 -17z m19
-67 c0 -2 -6 -9 -14 -15 -11 -9 -16 -9 -22 0 -4 7 -3 9 4 5 6 -3 13 -2 17 4 6
10 15 14 15 6z m5 -96 c3 -6 -1 -7 -9 -4 -18 7 -21 14 -7 14 6 0 13 -4 16 -10z
m-15 -16 c0 -8 -19 -13 -24 -6 -3 5 1 9 9 9 8 0 15 -2 15 -3z m14 -22 c3 -5
-1 -9 -9 -9 -8 0 -12 4 -9 9 3 4 7 8 9 8 2 0 6 -4 9 -8z m-24 -66 c0 -2 -8
-10 -17 -17 -16 -13 -17 -12 -4 4 13 16 21 21 21 13z m-20 -56 c0 -5 -5 -10
-11 -10 -5 0 -7 5 -4 10 3 6 8 10 11 10 2 0 4 -4 4 -10z m10 -55 c0 -1 -10
-10 -22 -21 -14 -12 -18 -13 -10 -3 6 9 10 18 7 21 -3 2 2 5 10 5 8 0 15 -1
15 -2z m-30 -85 c0 -5 -5 -10 -11 -10 -5 0 -7 5 -4 10 3 6 8 10 11 10 2 0 4
-4 4 -10z m5 -59 c-9 -8 -36 -10 -30 -2 2 4 11 8 20 8 8 0 13 -3 10 -6z m-15
-36 c-7 -8 -17 -15 -23 -15 -6 0 -2 7 9 15 25 19 30 19 14 0z m-9 -42 c13 -16
12 -17 -3 -4 -17 13 -22 21 -14 21 2 0 10 -8 17 -17z m-23 -25 c-2 -7 4 -11
12 -10 8 2 11 0 7 -4 -22 -22 -38 -9 -28 24 3 9 11 0 9 -10z m16 -67 c-2 -3
-12 3 -22 13 -16 17 -16 18 5 5 12 -7 20 -15 17 -18z m-77 -88 c-4 -3 -1 -13
6 -22 11 -14 10 -14 -5 -2 -16 12 -16 31 -1 31 4 0 3 -3 0 -7z m3 -67 c0 -2
-8 -10 -17 -17 -16 -13 -17 -12 -4 4 13 16 21 21 21 13z m5 -36 c-3 -5 -12
-10 -18 -10 -7 0 -6 4 3 10 19 12 23 12 15 0z m-35 -35 c-7 -8 -17 -15 -23
-15 -6 0 -2 7 9 15 25 19 30 19 14 0z m-46 -23 c3 -5 -1 -9 -9 -9 -8 0 -12 4
-9 9 3 4 7 8 9 8 2 0 6 -4 9 -8z m-3 -39 c13 -16 12 -17 -3 -4 -10 7 -18 15
-18 17 0 8 8 3 21 -13z m-44 -20 c-4 -3 -1 -13 6 -22 11 -14 10 -14 -5 -2 -16
12 -16 31 -1 31 4 0 3 -3 0 -7z m4 -66 c-6 -8 -7 -18 -3 -22 4 -5 1 -5 -6 -1
-10 6 -10 11 -1 22 6 8 14 14 16 14 3 0 0 -6 -6 -13z m-76 -57 c-3 -5 -12 -10
-18 -10 -7 0 -6 4 3 10 19 12 23 12 15 0z m39 2 c3 -5 -1 -9 -9 -9 -8 0 -15 4
-15 9 0 4 4 8 9 8 6 0 12 -4 15 -8z m-55 -66 c9 -11 9 -16 -1 -22 -7 -4 -10
-4 -6 1 4 4 3 14 -3 22 -6 7 -9 13 -6 13 2 0 10 -6 16 -14z m-36 -66 c10 -12
9 -12 -4 -2 -9 6 -18 9 -21 6 -3 -3 -9 -1 -12 4 -9 15 22 8 37 -8z m-38 -9 c3
-5 2 -12 -3 -15 -5 -3 -9 1 -9 9 0 17 3 19 12 6z m-36 -65 c-3 -3 -11 5 -18
17 -13 21 -12 21 5 5 10 -10 16 -20 13 -22z m-39 0 c0 -2 -8 -10 -17 -17 -16
-13 -17 -12 -4 4 13 16 21 21 21 13z m20 -20 c0 -2 -8 -10 -17 -17 -16 -13
-17 -12 -4 4 13 16 21 21 21 13z m-2942 -61 c-3 -3 -9 2 -12 12 -6 14 -5 15 5
6 7 -7 10 -15 7 -18z m2880 -24 c-7 -9 -13 -18 -15 -20 -1 -2 -1 5 0 16 0 11
7 20 14 20 10 0 10 -4 1 -16z m-58 5 c0 -2 -8 -10 -17 -17 -16 -13 -17 -12 -4
4 13 16 21 21 21 13z m20 -34 c0 -5 -7 -9 -15 -9 -8 0 -12 4 -9 9 3 4 9 8 15
8 5 0 9 -4 9 -8z m-64 -22 c0 -12 -4 -16 -9 -11 -5 5 -6 14 -3 20 10 15 12 14
12 -9z m-13 -65 c-3 -9 -8 -14 -10 -11 -3 3 -2 9 2 15 9 16 15 13 8 -4z m-23
-9 c0 -2 -7 -7 -16 -10 -8 -3 -12 -2 -9 4 6 10 25 14 25 6z m-2500 -46 c0 -5
-2 -10 -4 -10 -3 0 -8 5 -11 10 -3 6 -1 10 4 10 6 0 11 -4 11 -10z m2390 5 c0
-2 -6 -8 -13 -14 -10 -8 -14 -7 -14 2 0 8 6 14 14 14 7 0 13 -1 13 -2z m50
-21 c0 -8 -19 -13 -24 -6 -3 5 1 9 9 9 8 0 15 -2 15 -3z m-103 -19 c0 -8 -3
-13 -5 -10 -3 3 -15 -3 -26 -12 -15 -14 -18 -14 -8 -2 6 9 8 20 4 24 -4 5 -2
5 5 1 6 -3 14 -2 18 4 9 14 12 13 12 -5z m68 -15 c-3 -5 -12 -10 -18 -10 -7 0
-6 4 3 10 19 12 23 12 15 0z m-2320 -10 c3 -6 -1 -7 -9 -4 -18 7 -21 14 -7 14
6 0 13 -4 16 -10z m2269 -9 c3 -5 -2 -15 -12 -22 -15 -12 -16 -12 -5 2 7 9 10
19 6 22 -3 4 -4 7 0 7 3 0 8 -4 11 -9z m-78 -43 c5 4 5 3 1 -2 -12 -15 -34
-15 -34 0 0 9 4 11 12 4 7 -5 16 -6 21 -2z m-2075 -25 c13 -16 12 -17 -3 -4
-17 13 -22 21 -14 21 2 0 10 -8 17 -17z m2030 -10 c13 -16 12 -17 -3 -4 -17
13 -22 21 -14 21 2 0 10 -8 17 -17z m-1979 -8 c2 3 5 -2 5 -10 0 -19 0 -19
-23 7 -12 14 -13 18 -3 10 9 -6 18 -10 21 -7z m1925 1 c0 -14 -49 -17 -63 -4
-3 4 5 5 19 2 14 -2 29 0 32 6 8 14 12 13 12 -4z m-32 -46 c3 -6 -1 -7 -9 -4
-18 7 -21 14 -7 14 6 0 13 -4 16 -10z m-148 -15 c0 -8 -10 -23 -21 -32 -21
-18 -21 -18 -2 5 11 12 16 22 12 22 -4 0 -4 5 -1 10 9 14 12 13 12 -5z m-1602
-4 c3 -5 2 -12 -3 -15 -5 -3 -9 1 -9 9 0 17 3 19 12 6z m1639 1 c3 -5 -1 -9
-9 -9 -8 0 -12 4 -9 9 3 4 7 8 9 8 2 0 6 -4 9 -8z m49 -9 c-4 -10 -9 -11 -19
-2 -18 15 -18 15 5 15 11 0 17 -5 14 -13z m-1647 -15 c4 -7 4 -10 -1 -6 -4 4
-15 2 -24 -5 -14 -11 -14 -10 -2 6 16 20 18 21 27 5z m1484 -2 c0 -2 -8 -10
-17 -17 -16 -13 -17 -12 -4 4 13 16 21 21 21 13z m0 -36 c0 -5 -5 -10 -11 -10
-5 0 -7 5 -4 10 3 6 8 10 11 10 2 0 4 -4 4 -10z m-164 -35 c1 -8 -1 -17 -5
-19 -4 -3 -7 6 -7 19 0 25 8 25 12 0z m-65 -18 c-10 -9 -11 -8 -5 6 3 10 9 15
12 12 3 -3 0 -11 -7 -18z m-937 -36 c-2 -3 -12 3 -22 13 -16 17 -16 18 5 5 12
-7 20 -15 17 -18z m82 5 c0 -14 -3 -23 -7 -20 -6 3 -6 22 0 42 3 10 7 -2 7
-22z m761 9 c0 -8 -3 -13 -5 -10 -3 3 -10 0 -17 -5 -8 -7 -12 -5 -12 5 0 8 4
12 8 9 4 -2 10 0 14 6 9 14 12 13 12 -5z m-731 -23 c-17 -16 -18 -16 -5 5 7
12 15 20 18 17 3 -2 -3 -12 -13 -22z m629 19 c3 -5 2 -12 -3 -15 -5 -3 -9 1
-9 9 0 17 3 19 12 6z m-688 -26 c0 -8 -4 -12 -9 -9 -5 3 -6 10 -3 15 9 13 12
11 12 -6z m229 0 c-1 -8 -5 -17 -8 -21 -5 -4 -4 16 1 34 3 9 9 -1 7 -13z m78
7 c3 -5 -1 -9 -9 -9 -8 0 -12 4 -9 9 3 4 7 8 9 8 2 0 6 -4 9 -8z m42 -18 c1
-9 0 -13 -4 -10 -3 4 -7 14 -8 22 -1 9 0 13 4 10 3 -4 7 -14 8 -22z m181 19
c-4 -3 -1 -13 6 -22 11 -14 10 -14 -5 -2 -16 12 -16 31 -1 31 4 0 3 -3 0 -7z
m98 -1 c-3 -3 0 -11 6 -19 17 -20 5 -16 -14 5 -15 16 -15 19 -2 19 8 0 13 -3
10 -5z m-169 -24 c3 -4 -1 -5 -10 -4 -8 1 -18 5 -22 8 -3 4 1 5 10 4 8 -1 18
-5 22 -8z m49 -11 c1 -7 7 -11 14 -9 7 1 9 -2 6 -9 -9 -13 -28 3 -31 27 -1 9
1 13 4 9 4 -4 7 -12 7 -18z"/>
<path d="M4525 3131 c-3 -5 -1 -12 5 -16 5 -3 10 1 10 9 0 18 -6 21 -15 7z"/>
<path d="M4403 1445 c0 -8 4 -15 9 -15 4 0 8 4 8 9 0 6 -4 12 -8 15 -5 3 -9
-1 -9 -9z"/>
<path d="M1750 361 c0 -5 7 -12 16 -15 14 -5 15 -4 4 9 -14 17 -20 19 -20 6z"/>
<path d="M2210 230 c0 -5 5 -10 11 -10 5 0 7 5 4 10 -3 6 -8 10 -11 10 -2 0
-4 -4 -4 -10z"/>
</g>
</svg>
